<!DOCTYPE svg PUBLIC "-//W3C//DTD SVG 1.1//EN" "http://www.w3.org/Graphics/SVG/1.1/DTD/svg11.dtd">
<!-- Uploaded to: SVG Repo, www.svgrepo.com, Transformed by: SVG Repo Mixer Tools -->
<svg version="1.1" id="Uploaded to svgrepo.com" xmlns="http://www.w3.org/2000/svg" xmlns:xlink="http://www.w3.org/1999/xlink" width="800px" height="800px" viewBox="0 0 32 32" xml:space="preserve" fill="rgba(147, 197, 253, 0.4)">
<g id="SVGRepo_bgCarrier" stroke-width="0"/>
<g id="SVGRepo_tracerCarrier" stroke-linecap="round" stroke-linejoin="round"/>
<g id="SVGRepo_iconCarrier"> <style type="text/css"> .puchipuchi_een{fill:rgba(147, 197, 253, 0.4);} </style> <path class="puchipuchi_een" d="M21,24c0,0.552-0.447,1-1,1h-8c-0.553,0-1-0.448-1-1s0.447-1,1-1h8C20.553,23,21,23.448,21,24z M20,26h-8c-0.553,0-1,0.448-1,1s0.447,1,1,1h8c0.553,0,1-0.448,1-1S20.553,26,20,26z M15,29v1c0,0.552,0.448,1,1,1s1-0.448,1-1v-1 H15z M26,11c0,5-5,8-5,10c0,0.552-0.448,1-1,1h-8c-0.552,0-1-0.448-1-1c0-2-5-5-5-10C6,5.477,10.477,1,16,1S26,5.477,26,11z M17,4 c0-0.552-0.447-1-1-1c-4.411,0-8,3.589-8,8c0,0.552,0.447,1,1,1s1-0.448,1-1c0-3.309,2.691-6,6-6C16.553,5,17,4.552,17,4z"/> </g>
</svg>